# xmcd
#
# Track frame offsets: 
#        150
#        12144
#        30529
#        42373
#        57695
#        68860
#        84562
#        98041
#        112313
#        124113
#
# Disc length: 1811 seconds
#
# Revision: 0
# Processed by: cddbd v1.5.1PL0 Copyright (c) Steve Scherf et al.
# Submitted via: ExactAudioCopy v0.95a5
#
DISCID=8707110a
DTITLE=Rick Robledo - Back In The Swing Of Things
DYEAR=1900
DGENRE=Country
TTITLE0=Back In The Swing Of Things
TTITLE1=Can't Go Back To Texas
TTITLE2=What A Way To Live
TTITLE3=Talking To Myself Again
TTITLE4=If I Had A Swing Like That
TTITLE5=When Hell Freezes Over
TTITLE6=Undo The Right
TTITLE7=Wanting You
TTITLE8=The One You Slip Around With
TTITLE9=I Don't Believe That's How You Feel
EXTD=
EXTT0=
EXTT1=
EXTT2=
EXTT3=
EXTT4=
EXTT5=
EXTT6=
EXTT7=
EXTT8=
EXTT9=
PLAYORDER=
